<mxfile host="Electron" agent="Mozilla/5.0 (Windows NT 10.0; Win64; x64) AppleWebKit/537.36 (KHTML, like Gecko) draw.io/26.2.15 Chrome/134.0.6998.205 Electron/35.2.1 Safari/537.36" version="26.2.15">
  <diagram name="Page-1" id="zso2X_c7ndwXZOcnVMv6">
    <mxGraphModel dx="1917" dy="825" grid="1" gridSize="10" guides="1" tooltips="1" connect="1" arrows="1" fold="1" page="1" pageScale="1" pageWidth="827" pageHeight="1169" math="0" shadow="0">
      <root>
        <mxCell id="0" />
        <mxCell id="1" parent="0" />
        <mxCell id="7p62Sczxtt_qUeSZ05rh-1" value="" style="rounded=0;whiteSpace=wrap;html=1;" parent="1" vertex="1">
          <mxGeometry x="-20" y="90" width="760" height="430" as="geometry" />
        </mxCell>
        <mxCell id="7p62Sczxtt_qUeSZ05rh-3" value="" style="rounded=1;whiteSpace=wrap;html=1;" parent="1" vertex="1">
          <mxGeometry y="120" width="720" height="370" as="geometry" />
        </mxCell>
        <mxCell id="7p62Sczxtt_qUeSZ05rh-18" value="" style="edgeStyle=orthogonalEdgeStyle;rounded=0;orthogonalLoop=1;jettySize=auto;html=1;" parent="1" source="7p62Sczxtt_qUeSZ05rh-4" target="7p62Sczxtt_qUeSZ05rh-10" edge="1">
          <mxGeometry relative="1" as="geometry" />
        </mxCell>
        <mxCell id="7p62Sczxtt_qUeSZ05rh-4" value="" style="whiteSpace=wrap;html=1;aspect=fixed;" parent="1" vertex="1">
          <mxGeometry x="15" y="210" width="80" height="80" as="geometry" />
        </mxCell>
        <mxCell id="7p62Sczxtt_qUeSZ05rh-5" value="" style="aspect=fixed;sketch=0;html=1;dashed=0;whitespace=wrap;verticalLabelPosition=bottom;verticalAlign=top;fillColor=#2875E2;strokeColor=#ffffff;points=[[0.005,0.63,0],[0.1,0.2,0],[0.9,0.2,0],[0.5,0,0],[0.995,0.63,0],[0.72,0.99,0],[0.5,1,0],[0.28,0.99,0]];shape=mxgraph.kubernetes.icon2;kubernetesLabel=1;prIcon=api" parent="1" vertex="1">
          <mxGeometry x="30" y="212" width="50" height="48" as="geometry" />
        </mxCell>
        <mxCell id="7p62Sczxtt_qUeSZ05rh-6" value="API" style="text;html=1;align=center;verticalAlign=middle;whiteSpace=wrap;rounded=0;" parent="1" vertex="1">
          <mxGeometry x="30" y="260" width="60" height="30" as="geometry" />
        </mxCell>
        <mxCell id="I416Dk17hhQ5ic3PVkhX-2" value="" style="edgeStyle=orthogonalEdgeStyle;rounded=0;orthogonalLoop=1;jettySize=auto;html=1;" edge="1" parent="1" source="7p62Sczxtt_qUeSZ05rh-8" target="7p62Sczxtt_qUeSZ05rh-50">
          <mxGeometry relative="1" as="geometry" />
        </mxCell>
        <mxCell id="7p62Sczxtt_qUeSZ05rh-8" value="" style="rounded=0;whiteSpace=wrap;html=1;" parent="1" vertex="1">
          <mxGeometry x="240" y="220.37" width="70" height="70" as="geometry" />
        </mxCell>
        <mxCell id="7p62Sczxtt_qUeSZ05rh-9" value="" style="points=[];aspect=fixed;html=1;align=center;shadow=0;dashed=0;fillColor=#FF6A00;strokeColor=none;shape=mxgraph.alibaba_cloud.kafka;" parent="1" vertex="1">
          <mxGeometry x="254.75" y="227.69" width="35.25" height="26.11" as="geometry" />
        </mxCell>
        <mxCell id="7p62Sczxtt_qUeSZ05rh-10" value="&lt;b&gt;KAFKA&lt;/b&gt;" style="text;html=1;align=center;verticalAlign=middle;whiteSpace=wrap;rounded=0;" parent="1" vertex="1">
          <mxGeometry x="250" y="260" width="50" height="30" as="geometry" />
        </mxCell>
        <mxCell id="I416Dk17hhQ5ic3PVkhX-1" value="" style="edgeStyle=orthogonalEdgeStyle;rounded=0;orthogonalLoop=1;jettySize=auto;html=1;" edge="1" parent="1" source="7p62Sczxtt_qUeSZ05rh-14" target="7p62Sczxtt_qUeSZ05rh-10">
          <mxGeometry relative="1" as="geometry" />
        </mxCell>
        <mxCell id="7p62Sczxtt_qUeSZ05rh-14" value="" style="swimlane;startSize=0;" parent="1" vertex="1">
          <mxGeometry x="209.88" y="330" width="125" height="60" as="geometry" />
        </mxCell>
        <mxCell id="7p62Sczxtt_qUeSZ05rh-26" value="&lt;b&gt;Zookeeper&lt;/b&gt;&amp;nbsp;" style="text;html=1;align=center;verticalAlign=middle;whiteSpace=wrap;rounded=0;" parent="7p62Sczxtt_qUeSZ05rh-14" vertex="1">
          <mxGeometry x="32.5" y="30.00000000000002" width="60" height="30" as="geometry" />
        </mxCell>
        <mxCell id="7p62Sczxtt_qUeSZ05rh-16" value="" style="swimlane;startSize=0;" parent="1" vertex="1">
          <mxGeometry x="380" y="235.69" width="120" height="81.63" as="geometry" />
        </mxCell>
        <mxCell id="7p62Sczxtt_qUeSZ05rh-19" value="" style="dashed=0;outlineConnect=0;html=1;align=center;labelPosition=center;verticalLabelPosition=bottom;verticalAlign=top;shape=mxgraph.webicons.mongodb;gradientColor=#DFDEDE" parent="1" vertex="1">
          <mxGeometry x="620" y="237.32" width="70" height="80" as="geometry" />
        </mxCell>
        <mxCell id="7p62Sczxtt_qUeSZ05rh-20" value="" style="shape=dataStorage;whiteSpace=wrap;html=1;fixedSize=1;" parent="1" vertex="1">
          <mxGeometry x="550" y="245.01" width="80" height="70" as="geometry" />
        </mxCell>
        <mxCell id="7p62Sczxtt_qUeSZ05rh-37" value="" style="edgeStyle=orthogonalEdgeStyle;rounded=0;orthogonalLoop=1;jettySize=auto;html=1;" parent="1" source="7p62Sczxtt_qUeSZ05rh-21" target="7p62Sczxtt_qUeSZ05rh-22" edge="1">
          <mxGeometry relative="1" as="geometry" />
        </mxCell>
        <mxCell id="7p62Sczxtt_qUeSZ05rh-21" value="&lt;b&gt;Extraction&lt;/b&gt;" style="text;html=1;align=center;verticalAlign=middle;whiteSpace=wrap;rounded=0;" parent="1" vertex="1">
          <mxGeometry x="30" y="430" width="60" height="30" as="geometry" />
        </mxCell>
        <mxCell id="7p62Sczxtt_qUeSZ05rh-38" value="" style="edgeStyle=orthogonalEdgeStyle;rounded=0;orthogonalLoop=1;jettySize=auto;html=1;" parent="1" source="7p62Sczxtt_qUeSZ05rh-22" target="7p62Sczxtt_qUeSZ05rh-23" edge="1">
          <mxGeometry relative="1" as="geometry" />
        </mxCell>
        <mxCell id="7p62Sczxtt_qUeSZ05rh-22" value="&lt;b&gt;Transformation&lt;/b&gt;" style="text;html=1;align=center;verticalAlign=middle;whiteSpace=wrap;rounded=0;" parent="1" vertex="1">
          <mxGeometry x="250" y="430" width="75" height="30" as="geometry" />
        </mxCell>
        <mxCell id="7p62Sczxtt_qUeSZ05rh-23" value="&lt;b&gt;Loading&lt;/b&gt;" style="text;html=1;align=center;verticalAlign=middle;whiteSpace=wrap;rounded=0;" parent="1" vertex="1">
          <mxGeometry x="620" y="430" width="60" height="30" as="geometry" />
        </mxCell>
        <mxCell id="7p62Sczxtt_qUeSZ05rh-24" value="" style="image;sketch=0;aspect=fixed;html=1;points=[];align=center;fontSize=12;image=img/lib/mscae/Docker.svg;" parent="1" vertex="1">
          <mxGeometry x="630" y="115" width="80" height="65.6" as="geometry" />
        </mxCell>
        <mxCell id="7p62Sczxtt_qUeSZ05rh-27" value="&lt;b&gt;NoSQL&lt;/b&gt;" style="text;html=1;align=center;verticalAlign=middle;whiteSpace=wrap;rounded=0;" parent="1" vertex="1">
          <mxGeometry x="530" y="210" width="100" height="30" as="geometry" />
        </mxCell>
        <mxCell id="7p62Sczxtt_qUeSZ05rh-29" value="" style="rounded=1;whiteSpace=wrap;html=1;" parent="1" vertex="1">
          <mxGeometry x="105" y="220.37" width="70" height="29.5" as="geometry" />
        </mxCell>
        <mxCell id="7p62Sczxtt_qUeSZ05rh-31" value="&lt;b&gt;Producer&lt;/b&gt;" style="text;html=1;align=center;verticalAlign=middle;whiteSpace=wrap;rounded=0;" parent="1" vertex="1">
          <mxGeometry x="105" y="190.37" width="60" height="30" as="geometry" />
        </mxCell>
        <mxCell id="7p62Sczxtt_qUeSZ05rh-39" style="edgeStyle=orthogonalEdgeStyle;rounded=0;orthogonalLoop=1;jettySize=auto;html=1;exitX=0.5;exitY=0;exitDx=0;exitDy=0;entryX=0.633;entryY=-0.067;entryDx=0;entryDy=0;entryPerimeter=0;" parent="1" source="7p62Sczxtt_qUeSZ05rh-23" target="7p62Sczxtt_qUeSZ05rh-23" edge="1">
          <mxGeometry relative="1" as="geometry" />
        </mxCell>
        <mxCell id="7p62Sczxtt_qUeSZ05rh-42" value="" style="shape=singleArrow;whiteSpace=wrap;html=1;arrowWidth=1;arrowSize=0.46;" parent="1" vertex="1">
          <mxGeometry x="115" y="227.69" width="50" height="15" as="geometry" />
        </mxCell>
        <mxCell id="7p62Sczxtt_qUeSZ05rh-48" value="&lt;b&gt;MongoDB&lt;/b&gt;" style="text;html=1;align=center;verticalAlign=middle;whiteSpace=wrap;rounded=0;" parent="1" vertex="1">
          <mxGeometry x="570" y="260" width="60" height="27.32" as="geometry" />
        </mxCell>
        <mxCell id="7p62Sczxtt_qUeSZ05rh-25" value="&lt;b&gt;Consumer&lt;/b&gt;" style="text;html=1;align=center;verticalAlign=middle;whiteSpace=wrap;rounded=0;" parent="1" vertex="1">
          <mxGeometry x="370" y="197.69" width="140" height="30" as="geometry" />
        </mxCell>
        <mxCell id="I416Dk17hhQ5ic3PVkhX-3" value="" style="edgeStyle=orthogonalEdgeStyle;rounded=0;orthogonalLoop=1;jettySize=auto;html=1;" edge="1" parent="1" source="7p62Sczxtt_qUeSZ05rh-50" target="7p62Sczxtt_qUeSZ05rh-48">
          <mxGeometry relative="1" as="geometry" />
        </mxCell>
        <mxCell id="7p62Sczxtt_qUeSZ05rh-50" value="&lt;b&gt;&lt;font style=&quot;font-size: 21px; color: light-dark(rgb(0, 0, 0), rgb(255, 155, 68));&quot;&gt;Apache&lt;/font&gt;&lt;/b&gt;&lt;div&gt;&lt;b style=&quot;background-color: transparent; color: light-dark(rgb(0, 0, 0), rgb(255, 255, 255));&quot;&gt;&lt;font style=&quot;font-size: 21px; color: light-dark(rgb(0, 0, 0), rgb(255, 155, 68));&quot;&gt;Spark&lt;/font&gt;&lt;/b&gt;&lt;/div&gt;" style="text;html=1;align=center;verticalAlign=middle;whiteSpace=wrap;rounded=0;strokeWidth=2;" parent="1" vertex="1">
          <mxGeometry x="385" y="242.69" width="110" height="74.63" as="geometry" />
        </mxCell>
        <mxCell id="7p62Sczxtt_qUeSZ05rh-57" value="&lt;b&gt;&lt;i&gt;Retail Data Pipeline&amp;nbsp; Architecture&amp;nbsp;&lt;/i&gt;&lt;/b&gt;" style="text;html=1;align=center;verticalAlign=middle;whiteSpace=wrap;rounded=0;" parent="1" vertex="1">
          <mxGeometry x="175" y="115" width="310" height="80" as="geometry" />
        </mxCell>
      </root>
    </mxGraphModel>
  </diagram>
</mxfile>
